<?xml version="1.0" encoding="UTF-8"?>
<svg xmlns="http://www.w3.org/2000/svg" width="393" height="852" viewBox="0 0 393 852" fill="none">
  <style type="text/css"><![CDATA[
    @import url('https://fonts.googleapis.com/css2?family=Anton&family=Inter:wght@400;500;600;700;800&display=swap');
    text { font-family: 'Inter', system-ui, sans-serif; }
  ]]></style>

  <!-- Kyron Treinos (Workouts List) Screen -->
  <defs>
    <linearGradient id="yellowGradT" x1="0" y1="0" x2="1" y2="0">
      <stop offset="0" stop-color="#F4C430"/>
      <stop offset="1" stop-color="#E0AE10"/>
    </linearGradient>
    <radialGradient id="navKyronGlowT" cx="0.5" cy="0.5" r="0.5">
      <stop offset="0" stop-color="#F4C430" stop-opacity="0.25"/>
      <stop offset="1" stop-color="#F4C430" stop-opacity="0"/>
    </radialGradient>
    <clipPath id="avatarClipT">
      <circle cx="14" cy="14" r="14"/>
    </clipPath>
  </defs>

  <!-- Background -->
  <rect width="393" height="852" fill="#0A0A0A"/>

  <!-- Status bar -->
  <text x="32" y="36" fill="#FFFFFF" font-family="Inter, system-ui" font-size="17" font-weight="600">18:07</text>
  <g transform="translate(320, 22)">
    <rect x="0" y="10" width="3" height="4" rx="0.5" fill="#FFFFFF"/>
    <rect x="5" y="7" width="3" height="7" rx="0.5" fill="#FFFFFF"/>
    <rect x="10" y="4" width="3" height="10" rx="0.5" fill="#FFFFFF"/>
    <rect x="15" y="1" width="3" height="13" rx="0.5" fill="#FFFFFF" opacity="0.3"/>
    <path d="M26 8 Q32 3 38 8" stroke="#FFFFFF" stroke-width="2" fill="none" stroke-linecap="round"/>
    <path d="M28 11 Q32 7 36 11" stroke="#FFFFFF" stroke-width="2" fill="none" stroke-linecap="round"/>
    <circle cx="32" cy="14" r="1.5" fill="#FFFFFF"/>
    <rect x="46" y="5" width="22" height="10" rx="2.5" stroke="#FFFFFF" stroke-width="1" fill="none"/>
    <rect x="69" y="7.5" width="1.5" height="5" rx="0.5" fill="#FFFFFF"/>
    <rect x="48" y="7" width="17" height="6" rx="1" fill="#F4C430"/>
    <text x="50" y="12.5" fill="#000000" font-family="Inter" font-size="7" font-weight="700">39</text>
  </g>

  <!-- Eyebrow -->
  <text x="24" y="98" fill="#9A9A9A" font-family="Inter" font-size="11" font-weight="700" letter-spacing="2.5">TREINOS</text>
  <!-- Page title -->
  <text x="24" y="136" fill="#FFFFFF" font-family="Inter" font-size="30" font-weight="700">Meus Treinos</text>

  <!-- Week day filter chips -->
  <g transform="translate(24, 164)">
    <!-- SEX -->
    <rect x="0" y="0" width="56" height="34" rx="11" fill="#151515" stroke="#2A2A2A" stroke-width="1"/>
    <text x="28" y="22" fill="#B5B5B5" font-family="Inter" font-size="11" font-weight="700" text-anchor="middle" letter-spacing="1">SEX</text>
    <!-- QUI -->
    <rect x="64" y="0" width="56" height="34" rx="11" fill="#151515" stroke="#2A2A2A" stroke-width="1"/>
    <text x="92" y="22" fill="#B5B5B5" font-family="Inter" font-size="11" font-weight="700" text-anchor="middle" letter-spacing="1">QUI</text>
    <!-- QUA selected -->
    <rect x="128" y="0" width="56" height="34" rx="11" fill="#1F1A0A" stroke="#F4C430" stroke-width="1.5"/>
    <text x="156" y="22" fill="#F4C430" font-family="Inter" font-size="11" font-weight="800" text-anchor="middle" letter-spacing="1">QUA</text>
    <!-- TER -->
    <rect x="192" y="0" width="56" height="34" rx="11" fill="#151515" stroke="#2A2A2A" stroke-width="1"/>
    <text x="220" y="22" fill="#B5B5B5" font-family="Inter" font-size="11" font-weight="700" text-anchor="middle" letter-spacing="1">TER</text>
    <!-- SEG -->
    <rect x="256" y="0" width="56" height="34" rx="11" fill="#151515" stroke="#2A2A2A" stroke-width="1"/>
    <text x="284" y="22" fill="#B5B5B5" font-family="Inter" font-size="11" font-weight="700" text-anchor="middle" letter-spacing="1">SEG</text>
  </g>

  <!-- Status tabs -->
  <g transform="translate(24, 216)">
    <!-- Todos (15) - selected -->
    <rect x="0" y="0" width="100" height="34" rx="11" fill="#1F1A0A" stroke="#F4C430" stroke-width="1.5"/>
    <text x="50" y="22" fill="#F4C430" font-family="Inter" font-size="11" font-weight="800" text-anchor="middle" letter-spacing="0.5">Todos (15)</text>
    <!-- Pendentes (15) -->
    <rect x="108" y="0" width="120" height="34" rx="11" fill="#151515" stroke="#2A2A2A" stroke-width="1"/>
    <text x="168" y="22" fill="#B5B5B5" font-family="Inter" font-size="11" font-weight="600" text-anchor="middle">Pendentes (15)</text>
    <!-- Completos (0) -->
    <rect x="236" y="0" width="114" height="34" rx="11" fill="#151515" stroke="#2A2A2A" stroke-width="1"/>
    <text x="293" y="22" fill="#B5B5B5" font-family="Inter" font-size="11" font-weight="600" text-anchor="middle">Completos (0)</text>
  </g>

  <!-- Workout group: CONDITIONING -->
  <text x="24" y="290" fill="#F4C430" font-family="Inter" font-size="11" font-weight="800" letter-spacing="2.5">CONDITIONING</text>

  <g transform="translate(24, 304)">
    <rect width="345" height="76" rx="14" fill="#151515" stroke="#1F1F1F" stroke-width="1"/>
    <!-- Icon square -->
    <rect x="14" y="14" width="48" height="48" rx="12" fill="#1F1A0A"/>
    <g transform="translate(28, 28)" stroke="#F4C430" stroke-width="2" fill="none" stroke-linecap="round">
      <rect x="0" y="6" width="3" height="8" rx="1"/>
      <rect x="3" y="4" width="3" height="12" rx="1"/>
      <line x1="6" y1="10" x2="14" y2="10" stroke-width="3"/>
      <rect x="14" y="4" width="3" height="12" rx="1"/>
      <rect x="17" y="6" width="3" height="8" rx="1"/>
    </g>
    <!-- Title -->
    <text x="78" y="34" fill="#FFFFFF" font-family="Inter" font-size="13" font-weight="700">TREINO DE CONDICIONAMEN...</text>
    <!-- Meta -->
    <text x="78" y="54" fill="#9A9A9A" font-family="Inter" font-size="10" font-weight="500">10 abr · 60 MIN</text>
    <!-- XP badge -->
    <text x="332" y="34" fill="#F4C430" font-family="Inter" font-size="12" font-weight="800" text-anchor="end">+150 XP</text>
    <!-- Status pill -->
    <rect x="282" y="46" width="54" height="18" rx="5" fill="#1F1A0A" stroke="#F4C430" stroke-width="0.8"/>
    <text x="309" y="58" fill="#F4C430" font-family="Inter" font-size="9" font-weight="700" text-anchor="middle">Pendente</text>
  </g>

  <!-- Workout group: ARTES MARCIAIS -->
  <text x="24" y="408" fill="#F4C430" font-family="Inter" font-size="11" font-weight="800" letter-spacing="2.5">ARTES MARCIAIS</text>

  <g transform="translate(24, 422)">
    <rect width="345" height="76" rx="14" fill="#151515" stroke="#1F1F1F" stroke-width="1"/>
    <rect x="14" y="14" width="48" height="48" rx="12" fill="#1F1A0A"/>
    <g transform="translate(28, 28)" stroke="#F4C430" stroke-width="1.8" fill="none" stroke-linecap="round" stroke-linejoin="round">
      <path d="M2 16 L2 8 Q2 4 6 4 L14 4 Q18 4 18 8 L18 14 Q18 18 15 20 L7 20 Q2 18 2 16 Z"/>
    </g>
    <text x="78" y="34" fill="#FFFFFF" font-family="Inter" font-size="13" font-weight="700">TREINO DE ARTES MARCIAIS - ...</text>
    <text x="78" y="54" fill="#9A9A9A" font-family="Inter" font-size="10" font-weight="500">10 abr · 60 MIN</text>
    <text x="332" y="34" fill="#F4C430" font-family="Inter" font-size="12" font-weight="800" text-anchor="end">+150 XP</text>
    <rect x="282" y="46" width="54" height="18" rx="5" fill="#1F1A0A" stroke="#F4C430" stroke-width="0.8"/>
    <text x="309" y="58" fill="#F4C430" font-family="Inter" font-size="9" font-weight="700" text-anchor="middle">Pendente</text>
  </g>

  <!-- Workout group: MUAY THAI -->
  <text x="24" y="526" fill="#F4C430" font-family="Inter" font-size="11" font-weight="800" letter-spacing="2.5">MUAY THAI</text>

  <g transform="translate(24, 540)">
    <rect width="345" height="76" rx="14" fill="#151515" stroke="#1F1F1F" stroke-width="1"/>
    <rect x="14" y="14" width="48" height="48" rx="12" fill="#1F1A0A"/>
    <g transform="translate(24, 24)" stroke="#F4C430" stroke-width="1.5" fill="none" stroke-linecap="round">
      <!-- Muay Thai glove / knee icon stylized -->
      <path d="M4 14 L4 6 Q4 2 8 2 L18 2 Q22 2 22 6 L22 14 Q22 20 16 22 L10 22 Q4 20 4 14 Z"/>
      <path d="M15 2 L15 6"/>
    </g>
    <text x="78" y="34" fill="#FFFFFF" font-family="Inter" font-size="13" font-weight="700">TREINO DE MUAY THAI - QUA...</text>
    <text x="78" y="54" fill="#9A9A9A" font-family="Inter" font-size="10" font-weight="500">10 abr · 60 MIN</text>
    <text x="332" y="34" fill="#F4C430" font-family="Inter" font-size="12" font-weight="800" text-anchor="end">+150 XP</text>
    <rect x="282" y="46" width="54" height="18" rx="5" fill="#1F1A0A" stroke="#F4C430" stroke-width="0.8"/>
    <text x="309" y="58" fill="#F4C430" font-family="Inter" font-size="9" font-weight="700" text-anchor="middle">Pendente</text>
  </g>

  <!-- CTA: GERAR NOVO TREINO -->
  <g transform="translate(24, 660)">
    <rect width="345" height="58" rx="14" fill="url(#yellowGradT)"/>
    <!-- Sparkle icon -->
    <g transform="translate(70, 19)" fill="#0A0A0A">
      <path d="M10 0 L11.8 7.5 L19 10 L11.8 12 L10 19 L8.2 12 L1 10 L8.2 7.5 Z"/>
      <circle cx="17" cy="2.5" r="1.3"/>
    </g>
    <text x="107" y="37" fill="#0A0A0A" font-family="Inter" font-size="13" font-weight="800" letter-spacing="1.8">GERAR NOVO TREINO</text>
  </g>

  <!-- Bottom Navigation Bar -->
  <g transform="translate(0, 752)">
    <rect x="0" y="0" width="393" height="100" fill="#0A0A0A"/>
    <rect x="0" y="0" width="393" height="1" fill="#1F1F1F"/>

    <!-- INÍCIO -->
    <g transform="translate(39, 16)">
      <g stroke="#9A9A9A" stroke-width="1.8" fill="none" stroke-linecap="round" stroke-linejoin="round">
        <path d="M0 10 L10 2 L20 10 L20 20 L0 20 Z"/>
        <path d="M7 20 L7 14 L13 14 L13 20"/>
      </g>
      <text x="10" y="40" fill="#9A9A9A" font-family="Inter" font-size="9" font-weight="700" text-anchor="middle" letter-spacing="1.2">INÍCIO</text>
    </g>

    <!-- TREINOS (ACTIVE) -->
    <g transform="translate(114, 18)">
      <g stroke="#F4C430" stroke-width="1.8" fill="#F4C430" stroke-linecap="round" stroke-linejoin="round">
        <line x1="2" y1="16" x2="16" y2="2" stroke="#F4C430" fill="none"/>
        <path d="M0 12 L4 16 L0 20 L-2 18 L-2 14 Z"/>
        <path d="M16 0 L12 4 L16 8 L18 6 L18 2 Z"/>
      </g>
      <text x="8" y="38" fill="#F4C430" font-family="Inter" font-size="9" font-weight="800" text-anchor="middle" letter-spacing="1.2">TREINOS</text>
    </g>

    <!-- KYRON (center, highlighted) -->
    <g transform="translate(176, 0)">
      <circle cx="20" cy="24" r="34" fill="url(#navKyronGlowT)"/>
      <circle cx="20" cy="24" r="22" fill="#0A0A0A" stroke="#F4C430" stroke-width="1.5"/>
      <text x="20" y="31" fill="#F4C430" font-family="'Anton', sans-serif" font-size="20" font-weight="700" text-anchor="middle">K</text>
      <text x="20" y="76" fill="#F4C430" font-family="Inter" font-size="9" font-weight="800" text-anchor="middle" letter-spacing="1.2">KYRON</text>
    </g>

    <!-- SOCIAL -->
    <g transform="translate(260, 20)">
      <g stroke="#9A9A9A" stroke-width="1.8" fill="none" stroke-linecap="round">
        <circle cx="6" cy="6" r="4"/>
        <circle cx="18" cy="6" r="4"/>
        <path d="M0 18 Q0 12 6 12 Q12 12 12 18"/>
        <path d="M12 18 Q12 12 18 12 Q24 12 24 18"/>
      </g>
      <text x="12" y="36" fill="#9A9A9A" font-family="Inter" font-size="9" font-weight="700" text-anchor="middle" letter-spacing="1.2">SOCIAL</text>
    </g>

    <!-- PERFIL (avatar) -->
    <g transform="translate(335, 14)">
      <circle cx="14" cy="14" r="14" fill="#3A2A1A" stroke="#1F1F1F" stroke-width="1"/>
      <g clip-path="url(#avatarClipT)">
        <circle cx="14" cy="11" r="5" fill="#D4A76A"/>
        <ellipse cx="14" cy="26" rx="10" ry="7" fill="#8B6334"/>
      </g>
      <text x="14" y="42" fill="#9A9A9A" font-family="Inter" font-size="9" font-weight="700" text-anchor="middle" letter-spacing="1.2">PERFIL</text>
    </g>
  </g>
</svg>
